<svg width="150" height="150" viewBox="0 0 150 150" fill="none" xmlns="http://www.w3.org/2000/svg">
<rect width="150" height="150" rx="20" fill="#0A1920"/>
<path d="M19.1875 97L27.2188 51.5H45.2812C49.8646 51.5 53.2396 52.8021 55.4062 55.4062C57.5938 58.0104 58.3021 61.4792 57.5312 65.8125C56.7396 70.25 54.7188 73.8438 51.4688 76.5938C48.2396 79.3229 44.4271 80.6875 40.0312 80.6875H32.7812L29.9062 97H19.1875ZM34.0625 73.5312H39.2812C41.5312 73.5312 43.2188 72.8646 44.3438 71.5312C45.4896 70.1979 46.25 68.4688 46.625 66.3438C47 64.2188 46.8438 62.5 46.1562 61.1875C45.4896 59.8542 44.0417 59.1875 41.8125 59.1875H36.5625L34.0625 73.5312ZM42.25 97L36.9688 76.9375L47.0312 74.625L53.8438 97H42.25ZM52.83 97L53.8613 91.0312L79.2675 59.9062H60.2363L61.7363 51.5H94.33L93.205 57.8125L67.955 88.8125H88.7363L87.2988 97H52.83ZM93.535 51.5H104.379L108.098 81.0312C108.16 81.4688 108.212 81.9271 108.254 82.4062C108.295 82.8854 108.348 83.3438 108.41 83.7812H108.566C108.733 83.3438 108.931 82.875 109.16 82.375C109.389 81.8542 109.608 81.4062 109.816 81.0312L123.973 51.5H134.535L111.941 97.2188H100.004L93.535 51.5Z" fill="white"/>
</svg>
